Coordinates
version=1
nRows=4
nColumns=63
inDegrees=yes

Units are S.I. units (second, meters, Newtons, ...)
If the header above contains a line with 'inDegrees', this indicates whether rotational values are in degrees (yes) or radians (no).

endheader
time	pelvis_tilt	pelvis_list	pelvis_rotation	pelvis_tx	pelvis_ty	pelvis_tz	hip_flexion_r	hip_adduction_r	hip_rotation_r	knee_angle_r	knee_angle_r_beta	ankle_angle_r	subtalar_angle_r	mtp_angle_r	hip_flexion_l	hip_adduction_l	hip_rotation_l	knee_angle_l	knee_angle_l_beta	ankle_angle_l	subtalar_angle_l	mtp_angle_l	L5_S1_Flex_Ext	L5_S1_Lat_Bending	L5_S1_axial_rotation	L4_L5_Flex_Ext	L4_L5_Lat_Bending	L4_L5_axial_rotation	L3_L4_Flex_Ext	L3_L4_Lat_Bending	L3_L4_axial_rotation	L2_L3_Flex_Ext	L2_L3_Lat_Bending	L2_L3_axial_rotation	L1_L2_Flex_Ext	L1_L2_Lat_Bending	L1_L2_axial_rotation	L1_T12_Flex_Ext	L1_T12_Lat_Bending	L1_T12_axial_rotation	Abs_r3	Abs_r2	Abs_r1	Abs_t1	Abs_t2	neck_flexion	neck_bending	neck_rotation	arm_flex_r	arm_add_r	arm_rot_r	elbow_flex_r	pro_sup_r	wrist_flex_r	wrist_dev_r	arm_flex_l	arm_add_l	arm_rot_l	elbow_flex_l	pro_sup_l	wrist_flex_l	wrist_dev_l
      2.60000000	      2.23797626	     -0.77066706	      3.04033404	     -0.61880463	      0.96218351	      0.35181418	     10.76558537	      3.97491116	    -11.10404404	     21.49940770	      0.37523545	     13.88486973	     -3.22039532	      0.00000000	     10.60797960	     -6.24875734	     -5.77491606	     67.72320855	      1.18199297	      1.21375470	     -5.26974420	      0.00000000	      0.00245795	      0.14395360	     -1.45190759	      0.00456465	      0.19145828	     -1.54265182	      0.00403816	      0.35000878	     -1.54265182	      0.00280919	      0.35000878	     -1.27041914	      0.00228245	      0.29355018	     -1.17967492	      0.00140447	      0.22298412	     -1.08893069	      0.01755686	      1.62843189	     -8.07507445	      0.00000000	      0.00000000	     -0.00000000	      0.00000000	     -0.00000000	      5.35704645	    -13.35379741	     27.33459640	     17.87833397	     49.79643452	      0.00000000	      5.00000249	     -8.48193776	    -13.33791420	     27.28701036	     21.33160712	     54.19308219	      0.00000000	      5.00000249
      2.63333333	      1.67896234	     -0.20914983	      1.78707217	     -0.58183073	      0.96864283	      0.35445739	      7.41330119	      3.85888874	    -10.37883662	     18.73316500	      0.32695541	     13.25145695	     -2.57230446	      0.00000000	     17.32845552	     -5.02425395	     -5.64960436	     68.78255640	      1.20048208	      2.92045185	     -5.68866194	      0.00000000	     -0.00101610	      0.09246755	     -1.27344760	     -0.00188701	      0.12298184	     -1.35303808	     -0.00166936	      0.22482559	     -1.35303808	     -0.00116131	      0.22482559	     -1.11426665	     -0.00094355	      0.18855982	     -1.03467618	     -0.00058060	      0.14323223	     -0.95508570	     -0.00725793	      1.04601137	     -7.08253353	      0.00000000	      0.00000000	     -0.00000000	      0.00000000	     -0.00000000	      9.27226402	    -13.11429579	     27.64675388	     18.55223147	     49.83611364	      0.00000000	      5.00000243	    -10.51474072	    -12.83034659	     27.40402264	     20.44037276	     54.20323020	      0.00000000	      5.00000243
      2.66666667	      1.12592151	      0.02704494	      0.39255784	     -0.54572178	      0.97345717	      0.35688184	      4.14293361	      4.09563144	     -9.25309978	     15.81784889	      0.27607354	     11.92913392	     -3.09532570	      0.00000000	     23.55977982	     -3.99507436	     -5.18849916	     67.38091130	      1.17601876	      4.96892540	     -6.58845828	      0.00000000	     -0.00203720	      0.06074060	     -0.99710302	     -0.00378329	      0.08078499	     -1.05942196	     -0.00334692	      0.14768468	     -1.05942196	     -0.00232832	      0.14768468	     -0.87246514	     -0.00189175	      0.12386222	     -0.81014621	     -0.00116406	      0.09408718	     -0.74782727	     -0.01455154	      0.68710977	     -5.54558788	      0.00000000	      0.00000000	     -0.00000000	      0.00000000	     -0.00000000	     13.86965088	    -14.07639905	     38.19012105	     19.12409913	     51.13486328	      0.00000000	      5.00000181	    -12.59333010	    -11.84808069	     22.92497944	     19.91002857	     52.69589283	      0.00000000	      5.00000181
      2.70000000	      0.61281156	      0.18535289	     -1.28734482	     -0.50966338	      0.97590704	      0.35980771	      1.05822619	      4.20081942	     -8.87143910	     13.34764187	      0.23296030	     11.25070172	     -2.53457122	      0.00000000	     28.73571640	     -3.42491092	     -4.94924640	     63.40278601	      1.10658737	      6.94514066	     -8.10288780	      0.00000000	     -0.00424634	      0.02737703	     -0.54519963	     -0.00788588	      0.03641145	     -0.57927461	     -0.00697632	      0.06656451	     -0.57927461	     -0.00485314	      0.06656451	     -0.47704968	     -0.00394315	      0.05582724	     -0.44297470	     -0.00242636	      0.04240702	     -0.40889972	     -0.03033120	      0.30969442	     -3.03223678	      0.00000000	      0.00000000	     -0.00000000	      0.00000000	     -0.00000000	     16.52648728	    -14.31672729	     37.80803289	     21.01350317	     50.85510111	      0.00000000	      5.00000178	    -13.76551687	    -11.76206281	     22.57836666	     19.56067442	     52.55042571	      0.00000000	      5.00000178
